<mxfile host="Electron" modified="2023-07-11T12:22:56.418Z" agent="Mozilla/5.0 (Windows NT 10.0; Win64; x64) AppleWebKit/537.36 (KHTML, like Gecko) draw.io/21.6.1 Chrome/112.0.5615.204 Electron/24.6.1 Safari/537.36" etag="tJ8IRZS06-gQ7EV_kbMm" version="21.6.1" type="device">
  <diagram name="Page-1" id="WLaXgYRZyfCHg9T1D2Ye">
    <mxGraphModel dx="780" dy="504" grid="1" gridSize="10" guides="1" tooltips="1" connect="1" arrows="1" fold="1" page="1" pageScale="1" pageWidth="827" pageHeight="1169" math="1" shadow="0">
      <root>
        <mxCell id="0" />
        <mxCell id="1" parent="0" />
        <mxCell id="9WIbvKnd9g6irz9v7_oj-14" value="4" style="rounded=0;orthogonalLoop=1;jettySize=auto;html=1;exitX=1;exitY=0;exitDx=0;exitDy=0;entryX=0;entryY=0.5;entryDx=0;entryDy=0;endArrow=none;endFill=0;" parent="1" source="9WIbvKnd9g6irz9v7_oj-3" target="9WIbvKnd9g6irz9v7_oj-8" edge="1">
          <mxGeometry relative="1" as="geometry" />
        </mxCell>
        <mxCell id="9WIbvKnd9g6irz9v7_oj-16" value="5" style="rounded=0;orthogonalLoop=1;jettySize=auto;html=1;exitX=0;exitY=1;exitDx=0;exitDy=0;endArrow=none;endFill=0;" parent="1" source="9WIbvKnd9g6irz9v7_oj-3" target="9WIbvKnd9g6irz9v7_oj-5" edge="1">
          <mxGeometry relative="1" as="geometry" />
        </mxCell>
        <mxCell id="9WIbvKnd9g6irz9v7_oj-18" value="7" style="rounded=0;orthogonalLoop=1;jettySize=auto;html=1;exitX=1;exitY=1;exitDx=0;exitDy=0;entryX=0;entryY=0;entryDx=0;entryDy=0;startArrow=none;startFill=0;endArrow=none;endFill=0;strokeWidth=4;" parent="1" source="9WIbvKnd9g6irz9v7_oj-3" target="9WIbvKnd9g6irz9v7_oj-7" edge="1">
          <mxGeometry relative="1" as="geometry" />
        </mxCell>
        <mxCell id="9WIbvKnd9g6irz9v7_oj-19" value="10" style="rounded=0;orthogonalLoop=1;jettySize=auto;html=1;exitX=0;exitY=0.5;exitDx=0;exitDy=0;entryX=0.5;entryY=0;entryDx=0;entryDy=0;startArrow=none;startFill=0;endArrow=none;endFill=0;" parent="1" source="9WIbvKnd9g6irz9v7_oj-3" target="9WIbvKnd9g6irz9v7_oj-4" edge="1">
          <mxGeometry relative="1" as="geometry" />
        </mxCell>
        <mxCell id="9WIbvKnd9g6irz9v7_oj-20" value="2" style="rounded=0;orthogonalLoop=1;jettySize=auto;html=1;exitX=1;exitY=0.5;exitDx=0;exitDy=0;entryX=0;entryY=0;entryDx=0;entryDy=0;startArrow=none;startFill=0;endArrow=none;endFill=0;" parent="1" source="9WIbvKnd9g6irz9v7_oj-3" target="9WIbvKnd9g6irz9v7_oj-9" edge="1">
          <mxGeometry relative="1" as="geometry" />
        </mxCell>
        <mxCell id="9WIbvKnd9g6irz9v7_oj-22" value="7" style="rounded=0;orthogonalLoop=1;jettySize=auto;html=1;entryX=0.5;entryY=1;entryDx=0;entryDy=0;endArrow=none;endFill=0;exitX=0.5;exitY=1;exitDx=0;exitDy=0;" parent="1" source="9WIbvKnd9g6irz9v7_oj-3" target="9WIbvKnd9g6irz9v7_oj-13" edge="1">
          <mxGeometry relative="1" as="geometry">
            <mxPoint x="325" y="230" as="sourcePoint" />
          </mxGeometry>
        </mxCell>
        <mxCell id="9WIbvKnd9g6irz9v7_oj-23" value="7" style="rounded=0;orthogonalLoop=1;jettySize=auto;html=1;exitX=0;exitY=0;exitDx=0;exitDy=0;entryX=1;entryY=1;entryDx=0;entryDy=0;endArrow=none;endFill=0;" parent="1" source="9WIbvKnd9g6irz9v7_oj-3" target="9WIbvKnd9g6irz9v7_oj-6" edge="1">
          <mxGeometry relative="1" as="geometry">
            <Array as="points">
              <mxPoint x="260" y="210" />
            </Array>
          </mxGeometry>
        </mxCell>
        <mxCell id="9WIbvKnd9g6irz9v7_oj-3" value="$$0$$" style="ellipse;whiteSpace=wrap;html=1;aspect=fixed;fillColor=#d5e8d4;strokeColor=#82b366;" parent="1" vertex="1">
          <mxGeometry x="300" y="230" width="50" height="50" as="geometry" />
        </mxCell>
        <mxCell id="9WIbvKnd9g6irz9v7_oj-24" value="5" style="rounded=0;orthogonalLoop=1;jettySize=auto;html=1;entryX=0;entryY=1;entryDx=0;entryDy=0;endArrow=none;endFill=0;exitX=1;exitY=0;exitDx=0;exitDy=0;" parent="1" source="9WIbvKnd9g6irz9v7_oj-4" target="9WIbvKnd9g6irz9v7_oj-5" edge="1">
          <mxGeometry relative="1" as="geometry">
            <mxPoint x="107" y="507" as="sourcePoint" />
          </mxGeometry>
        </mxCell>
        <mxCell id="9WIbvKnd9g6irz9v7_oj-25" value="8" style="rounded=0;orthogonalLoop=1;jettySize=auto;html=1;exitX=0.5;exitY=0;exitDx=0;exitDy=0;entryX=0;entryY=1;entryDx=0;entryDy=0;endArrow=none;endFill=0;" parent="1" source="9WIbvKnd9g6irz9v7_oj-4" target="9WIbvKnd9g6irz9v7_oj-6" edge="1">
          <mxGeometry relative="1" as="geometry" />
        </mxCell>
        <mxCell id="9WIbvKnd9g6irz9v7_oj-26" value="7" style="rounded=0;orthogonalLoop=1;jettySize=auto;html=1;exitX=1;exitY=0.5;exitDx=0;exitDy=0;entryX=0;entryY=0.5;entryDx=0;entryDy=0;endArrow=none;endFill=0;" parent="1" source="9WIbvKnd9g6irz9v7_oj-4" target="9WIbvKnd9g6irz9v7_oj-7" edge="1">
          <mxGeometry relative="1" as="geometry" />
        </mxCell>
        <mxCell id="9WIbvKnd9g6irz9v7_oj-27" value="4" style="rounded=0;orthogonalLoop=1;jettySize=auto;html=1;exitX=1;exitY=0;exitDx=0;exitDy=0;entryX=0;entryY=1;entryDx=0;entryDy=0;endArrow=none;endFill=0;" parent="1" source="9WIbvKnd9g6irz9v7_oj-4" target="9WIbvKnd9g6irz9v7_oj-9" edge="1">
          <mxGeometry relative="1" as="geometry" />
        </mxCell>
        <mxCell id="9WIbvKnd9g6irz9v7_oj-28" value="1" style="rounded=0;orthogonalLoop=1;jettySize=auto;html=1;exitX=1;exitY=0.5;exitDx=0;exitDy=0;entryX=0;entryY=0;entryDx=0;entryDy=0;endArrow=none;endFill=0;" parent="1" source="9WIbvKnd9g6irz9v7_oj-4" target="9WIbvKnd9g6irz9v7_oj-13" edge="1">
          <mxGeometry relative="1" as="geometry" />
        </mxCell>
        <mxCell id="9WIbvKnd9g6irz9v7_oj-4" value="$$1$$" style="ellipse;whiteSpace=wrap;html=1;aspect=fixed;" parent="1" vertex="1">
          <mxGeometry x="100" y="500" width="50" height="50" as="geometry" />
        </mxCell>
        <mxCell id="9WIbvKnd9g6irz9v7_oj-30" value="6" style="rounded=0;orthogonalLoop=1;jettySize=auto;html=1;exitX=0.5;exitY=0;exitDx=0;exitDy=0;entryX=0.5;entryY=1;entryDx=0;entryDy=0;endArrow=none;endFill=0;" parent="1" source="9WIbvKnd9g6irz9v7_oj-5" target="9WIbvKnd9g6irz9v7_oj-6" edge="1">
          <mxGeometry relative="1" as="geometry" />
        </mxCell>
        <mxCell id="9WIbvKnd9g6irz9v7_oj-31" value="6" style="rounded=0;orthogonalLoop=1;jettySize=auto;html=1;exitX=1;exitY=0.5;exitDx=0;exitDy=0;entryX=0;entryY=0.5;entryDx=0;entryDy=0;endArrow=none;endFill=0;" parent="1" source="9WIbvKnd9g6irz9v7_oj-5" target="9WIbvKnd9g6irz9v7_oj-7" edge="1">
          <mxGeometry relative="1" as="geometry" />
        </mxCell>
        <mxCell id="9WIbvKnd9g6irz9v7_oj-32" value="6" style="rounded=0;orthogonalLoop=1;jettySize=auto;html=1;exitX=1;exitY=0;exitDx=0;exitDy=0;entryX=0;entryY=0.5;entryDx=0;entryDy=0;endArrow=none;endFill=0;" parent="1" source="9WIbvKnd9g6irz9v7_oj-5" target="9WIbvKnd9g6irz9v7_oj-9" edge="1">
          <mxGeometry relative="1" as="geometry" />
        </mxCell>
        <mxCell id="9WIbvKnd9g6irz9v7_oj-34" value="8" style="rounded=0;orthogonalLoop=1;jettySize=auto;html=1;exitX=0;exitY=0;exitDx=0;exitDy=0;endArrow=none;endFill=0;entryX=1;entryY=1;entryDx=0;entryDy=0;" parent="1" source="9WIbvKnd9g6irz9v7_oj-5" target="9WIbvKnd9g6irz9v7_oj-33" edge="1">
          <mxGeometry relative="1" as="geometry">
            <mxPoint x="90" y="280" as="targetPoint" />
          </mxGeometry>
        </mxCell>
        <mxCell id="9WIbvKnd9g6irz9v7_oj-5" value="$$2$$" style="ellipse;whiteSpace=wrap;html=1;aspect=fixed;" parent="1" vertex="1">
          <mxGeometry x="260" y="360" width="50" height="50" as="geometry" />
        </mxCell>
        <mxCell id="9WIbvKnd9g6irz9v7_oj-36" value="8" style="rounded=0;orthogonalLoop=1;jettySize=auto;html=1;exitX=1;exitY=0.5;exitDx=0;exitDy=0;entryX=0;entryY=0.5;entryDx=0;entryDy=0;startArrow=none;startFill=0;endArrow=none;endFill=0;" parent="1" source="9WIbvKnd9g6irz9v7_oj-6" target="9WIbvKnd9g6irz9v7_oj-8" edge="1">
          <mxGeometry relative="1" as="geometry" />
        </mxCell>
        <mxCell id="9WIbvKnd9g6irz9v7_oj-37" value="1" style="rounded=0;orthogonalLoop=1;jettySize=auto;html=1;exitX=1;exitY=1;exitDx=0;exitDy=0;entryX=0;entryY=0;entryDx=0;entryDy=0;startArrow=none;startFill=0;endArrow=none;endFill=0;" parent="1" source="9WIbvKnd9g6irz9v7_oj-6" target="9WIbvKnd9g6irz9v7_oj-9" edge="1">
          <mxGeometry relative="1" as="geometry" />
        </mxCell>
        <mxCell id="9WIbvKnd9g6irz9v7_oj-6" value="$$3$$" style="ellipse;whiteSpace=wrap;html=1;aspect=fixed;" parent="1" vertex="1">
          <mxGeometry x="190" y="150" width="50" height="50" as="geometry" />
        </mxCell>
        <mxCell id="9WIbvKnd9g6irz9v7_oj-39" value="3" style="rounded=0;orthogonalLoop=1;jettySize=auto;html=1;exitX=0.5;exitY=0;exitDx=0;exitDy=0;entryX=0.5;entryY=1;entryDx=0;entryDy=0;startArrow=none;startFill=0;endArrow=none;endFill=0;" parent="1" source="9WIbvKnd9g6irz9v7_oj-7" target="9WIbvKnd9g6irz9v7_oj-8" edge="1">
          <mxGeometry relative="1" as="geometry" />
        </mxCell>
        <mxCell id="9WIbvKnd9g6irz9v7_oj-40" value="6" style="rounded=0;orthogonalLoop=1;jettySize=auto;html=1;exitX=0.5;exitY=0;exitDx=0;exitDy=0;entryX=0.5;entryY=1;entryDx=0;entryDy=0;startArrow=none;startFill=0;endArrow=none;endFill=0;" parent="1" source="9WIbvKnd9g6irz9v7_oj-7" target="9WIbvKnd9g6irz9v7_oj-9" edge="1">
          <mxGeometry relative="1" as="geometry" />
        </mxCell>
        <mxCell id="9WIbvKnd9g6irz9v7_oj-41" value="6" style="rounded=0;orthogonalLoop=1;jettySize=auto;html=1;exitX=0;exitY=0.5;exitDx=0;exitDy=0;entryX=1;entryY=0;entryDx=0;entryDy=0;startArrow=none;startFill=0;endArrow=none;endFill=0;" parent="1" source="9WIbvKnd9g6irz9v7_oj-7" target="9WIbvKnd9g6irz9v7_oj-13" edge="1">
          <mxGeometry relative="1" as="geometry" />
        </mxCell>
        <mxCell id="9WIbvKnd9g6irz9v7_oj-42" value="5" style="rounded=0;orthogonalLoop=1;jettySize=auto;html=1;exitX=0;exitY=0.5;exitDx=0;exitDy=0;entryX=1;entryY=1;entryDx=0;entryDy=0;startArrow=none;startFill=0;endArrow=none;endFill=0;" parent="1" source="9WIbvKnd9g6irz9v7_oj-7" target="9WIbvKnd9g6irz9v7_oj-33" edge="1">
          <mxGeometry relative="1" as="geometry" />
        </mxCell>
        <mxCell id="9WIbvKnd9g6irz9v7_oj-7" value="$$4$$" style="ellipse;whiteSpace=wrap;html=1;aspect=fixed;fillColor=#dae8fc;strokeColor=#6c8ebf;" parent="1" vertex="1">
          <mxGeometry x="490" y="520" width="50" height="50" as="geometry" />
        </mxCell>
        <mxCell id="9WIbvKnd9g6irz9v7_oj-43" value="9" style="rounded=0;orthogonalLoop=1;jettySize=auto;html=1;exitX=1;exitY=1;exitDx=0;exitDy=0;entryX=0.5;entryY=0;entryDx=0;entryDy=0;endArrow=none;endFill=0;" parent="1" source="9WIbvKnd9g6irz9v7_oj-8" target="9WIbvKnd9g6irz9v7_oj-9" edge="1">
          <mxGeometry relative="1" as="geometry" />
        </mxCell>
        <mxCell id="9WIbvKnd9g6irz9v7_oj-44" value="5" style="rounded=0;orthogonalLoop=1;jettySize=auto;html=1;exitX=0.5;exitY=1;exitDx=0;exitDy=0;entryX=1;entryY=0;entryDx=0;entryDy=0;endArrow=none;endFill=0;" parent="1" source="9WIbvKnd9g6irz9v7_oj-8" target="9WIbvKnd9g6irz9v7_oj-13" edge="1">
          <mxGeometry relative="1" as="geometry" />
        </mxCell>
        <mxCell id="9WIbvKnd9g6irz9v7_oj-46" value="10" style="rounded=0;orthogonalLoop=1;jettySize=auto;html=1;exitX=1;exitY=1;exitDx=0;exitDy=0;entryX=0.5;entryY=0;entryDx=0;entryDy=0;endArrow=none;endFill=0;" parent="1" source="9WIbvKnd9g6irz9v7_oj-8" target="9WIbvKnd9g6irz9v7_oj-45" edge="1">
          <mxGeometry relative="1" as="geometry" />
        </mxCell>
        <mxCell id="9WIbvKnd9g6irz9v7_oj-47" value="9" style="rounded=0;orthogonalLoop=1;jettySize=auto;html=1;exitX=0;exitY=0.5;exitDx=0;exitDy=0;entryX=1;entryY=0.5;entryDx=0;entryDy=0;endArrow=none;endFill=0;" parent="1" source="9WIbvKnd9g6irz9v7_oj-8" target="9WIbvKnd9g6irz9v7_oj-33" edge="1">
          <mxGeometry relative="1" as="geometry">
            <mxPoint x="160" y="170.42857142857144" as="targetPoint" />
          </mxGeometry>
        </mxCell>
        <mxCell id="9WIbvKnd9g6irz9v7_oj-8" value="$$5$$" style="ellipse;whiteSpace=wrap;html=1;aspect=fixed;" parent="1" vertex="1">
          <mxGeometry x="450" y="170" width="50" height="50" as="geometry" />
        </mxCell>
        <mxCell id="9WIbvKnd9g6irz9v7_oj-48" value="1" style="rounded=0;orthogonalLoop=1;jettySize=auto;html=1;exitX=1;exitY=1;exitDx=0;exitDy=0;entryX=0;entryY=0;entryDx=0;entryDy=0;endArrow=none;endFill=0;" parent="1" source="9WIbvKnd9g6irz9v7_oj-9" target="9WIbvKnd9g6irz9v7_oj-45" edge="1">
          <mxGeometry relative="1" as="geometry" />
        </mxCell>
        <mxCell id="9WIbvKnd9g6irz9v7_oj-9" value="$$6$$" style="ellipse;whiteSpace=wrap;html=1;aspect=fixed;" parent="1" vertex="1">
          <mxGeometry x="500" y="280" width="50" height="50" as="geometry" />
        </mxCell>
        <mxCell id="9WIbvKnd9g6irz9v7_oj-49" value="5" style="rounded=0;orthogonalLoop=1;jettySize=auto;html=1;exitX=0;exitY=0;exitDx=0;exitDy=0;entryX=0.5;entryY=1;entryDx=0;entryDy=0;endArrow=none;endFill=0;" parent="1" source="9WIbvKnd9g6irz9v7_oj-13" target="9WIbvKnd9g6irz9v7_oj-33" edge="1">
          <mxGeometry relative="1" as="geometry" />
        </mxCell>
        <mxCell id="9WIbvKnd9g6irz9v7_oj-13" value="$$7$$" style="ellipse;whiteSpace=wrap;html=1;aspect=fixed;" parent="1" vertex="1">
          <mxGeometry x="330" y="580" width="50" height="50" as="geometry" />
        </mxCell>
        <mxCell id="9WIbvKnd9g6irz9v7_oj-38" value="1" style="rounded=0;orthogonalLoop=1;jettySize=auto;html=1;exitX=1;exitY=0.5;exitDx=0;exitDy=0;entryX=0;entryY=1;entryDx=0;entryDy=0;startArrow=none;startFill=0;endArrow=none;endFill=0;" parent="1" source="9WIbvKnd9g6irz9v7_oj-33" target="9WIbvKnd9g6irz9v7_oj-6" edge="1">
          <mxGeometry relative="1" as="geometry" />
        </mxCell>
        <mxCell id="9WIbvKnd9g6irz9v7_oj-33" value="$$9$$" style="ellipse;whiteSpace=wrap;html=1;aspect=fixed;" parent="1" vertex="1">
          <mxGeometry x="40" y="240" width="50" height="50" as="geometry" />
        </mxCell>
        <mxCell id="9WIbvKnd9g6irz9v7_oj-50" value="8" style="rounded=0;orthogonalLoop=1;jettySize=auto;html=1;exitX=0;exitY=0.5;exitDx=0;exitDy=0;entryX=1;entryY=0.5;entryDx=0;entryDy=0;endArrow=none;endFill=0;" parent="1" source="9WIbvKnd9g6irz9v7_oj-45" target="9WIbvKnd9g6irz9v7_oj-33" edge="1">
          <mxGeometry relative="1" as="geometry" />
        </mxCell>
        <mxCell id="9WIbvKnd9g6irz9v7_oj-45" value="$$8$$" style="ellipse;whiteSpace=wrap;html=1;aspect=fixed;fillColor=#f8cecc;strokeColor=#b85450;" parent="1" vertex="1">
          <mxGeometry x="620" y="350" width="50" height="50" as="geometry" />
        </mxCell>
        <mxCell id="9WIbvKnd9g6irz9v7_oj-52" value="5" style="text;html=1;align=center;verticalAlign=middle;resizable=0;points=[];autosize=1;strokeColor=none;fillColor=none;" parent="1" vertex="1">
          <mxGeometry x="35" y="210" width="30" height="30" as="geometry" />
        </mxCell>
        <mxCell id="9WIbvKnd9g6irz9v7_oj-53" value="4" style="text;html=1;align=center;verticalAlign=middle;resizable=0;points=[];autosize=1;strokeColor=none;fillColor=none;" parent="1" vertex="1">
          <mxGeometry x="190" y="120" width="30" height="30" as="geometry" />
        </mxCell>
        <mxCell id="9WIbvKnd9g6irz9v7_oj-56" value="4" style="text;html=1;align=center;verticalAlign=middle;resizable=0;points=[];autosize=1;strokeColor=none;fillColor=none;" parent="1" vertex="1">
          <mxGeometry x="455" y="138" width="30" height="30" as="geometry" />
        </mxCell>
        <mxCell id="9WIbvKnd9g6irz9v7_oj-57" value="2" style="text;html=1;align=center;verticalAlign=middle;resizable=0;points=[];autosize=1;strokeColor=none;fillColor=none;" parent="1" vertex="1">
          <mxGeometry x="270" y="234" width="30" height="30" as="geometry" />
        </mxCell>
        <mxCell id="9WIbvKnd9g6irz9v7_oj-60" value="10" style="text;html=1;align=center;verticalAlign=middle;resizable=0;points=[];autosize=1;strokeColor=none;fillColor=none;" parent="1" vertex="1">
          <mxGeometry x="535" y="290" width="40" height="30" as="geometry" />
        </mxCell>
        <mxCell id="9WIbvKnd9g6irz9v7_oj-61" value="5" style="text;html=1;align=center;verticalAlign=middle;resizable=0;points=[];autosize=1;strokeColor=none;fillColor=none;" parent="1" vertex="1">
          <mxGeometry x="255" y="408" width="30" height="30" as="geometry" />
        </mxCell>
        <mxCell id="9WIbvKnd9g6irz9v7_oj-62" value="5" style="text;html=1;align=center;verticalAlign=middle;resizable=0;points=[];autosize=1;strokeColor=none;fillColor=none;" parent="1" vertex="1">
          <mxGeometry x="75" y="528" width="30" height="30" as="geometry" />
        </mxCell>
        <mxCell id="9WIbvKnd9g6irz9v7_oj-63" value="4" style="text;html=1;align=center;verticalAlign=middle;resizable=0;points=[];autosize=1;strokeColor=none;fillColor=none;" parent="1" vertex="1">
          <mxGeometry x="375" y="608" width="30" height="30" as="geometry" />
        </mxCell>
        <mxCell id="9WIbvKnd9g6irz9v7_oj-64" value="&lt;b&gt;&lt;font color=&quot;#6c8ebf&quot; style=&quot;font-size: 16px;&quot;&gt;6&lt;/font&gt;&lt;/b&gt;" style="text;html=1;align=center;verticalAlign=middle;resizable=0;points=[];autosize=1;strokeColor=none;fillColor=none;" parent="1" vertex="1">
          <mxGeometry x="540" y="540" width="30" height="30" as="geometry" />
        </mxCell>
        <mxCell id="9WIbvKnd9g6irz9v7_oj-65" value="9" style="text;html=1;align=center;verticalAlign=middle;resizable=0;points=[];autosize=1;strokeColor=none;fillColor=none;" parent="1" vertex="1">
          <mxGeometry x="670" y="370" width="30" height="30" as="geometry" />
        </mxCell>
        <mxCell id="9WIbvKnd9g6irz9v7_oj-66" value="&lt;font size=&quot;1&quot; color=&quot;#b85450&quot;&gt;&lt;b style=&quot;font-size: 16px;&quot;&gt;10&lt;/b&gt;&lt;/font&gt;" style="text;html=1;align=center;verticalAlign=middle;resizable=0;points=[];autosize=1;strokeColor=none;fillColor=none;" parent="1" vertex="1">
          <mxGeometry x="640" y="320" width="40" height="30" as="geometry" />
        </mxCell>
        <mxCell id="9WIbvKnd9g6irz9v7_oj-67" value="6" style="text;html=1;align=center;verticalAlign=middle;resizable=0;points=[];autosize=1;strokeColor=none;fillColor=none;fontColor=#82B366;fontSize=16;fontStyle=1" parent="1" vertex="1">
          <mxGeometry x="340" y="264" width="30" height="30" as="geometry" />
        </mxCell>
        <mxCell id="0tAB8uRIij_2ffyKZDsy-1" value="&lt;span&gt;&lt;font style=&quot;font-size: 12px;&quot;&gt;3&lt;/font&gt;&lt;/span&gt;" style="text;html=1;align=center;verticalAlign=middle;resizable=0;points=[];autosize=1;strokeColor=none;fillColor=none;fontStyle=0" vertex="1" parent="1">
          <mxGeometry x="500" y="570" width="30" height="30" as="geometry" />
        </mxCell>
      </root>
    </mxGraphModel>
  </diagram>
</mxfile>
